<svg xmlns="http://www.w3.org/2000/svg" xmlns:xlink="http://www.w3.org/1999/xlink" xmlns:inkscape="http://www.inkscape.org/namespaces/inkscape" version="1.1" width="216.45691" height="126.75172" viewBox="0 0 216.45691 126.75172">
<defs>
<clipPath id="clip_1">
<path transform="matrix(1,0,0,-1,-126.6045,213.2992)" d="M126.6045 86.54748H343.0614V213.2992H126.6045Z" clip-rule="evenodd"/>
</clipPath>
<clipPath id="clip_2">
<path transform="matrix(1,0,0,-1,-126.6045,213.2992)" d="M0 .00012207H959.76V540H0Z"/>
</clipPath>
<clipPath id="clip_3">
<path transform="matrix(1,0,0,-1,-126.6045,213.2992)" d="M.000015259 .000061035H959.76V539.99996H.000015259Z"/>
</clipPath>
<clipPath id="clip_4">
<path transform="matrix(1,0,0,-1,-126.6045,213.2992)" d="M.000015259 .000061035H959.76V539.99996H.000015259Z"/>
</clipPath>
<clipPath id="clip_5">
<path transform="matrix(1,0,0,-1,-126.6045,213.2992)" d="M0 .00012207H959.76V540H0Z"/>
</clipPath>
<clipPath id="clip_6">
<path transform="matrix(1,0,0,-1,-126.6045,213.2992)" d="M0 .00012207H959.76V540H0Z"/>
</clipPath>
<clipPath id="clip_7">
<path transform="matrix(1,0,0,-1,-126.6045,213.2992)" d="M0 .00018311H959.76V540H0Z"/>
</clipPath>
<clipPath id="clip_8">
<path transform="matrix(1,0,0,-1,-126.6045,213.2992)" d="M0 .00018311H959.76V540H0Z"/>
</clipPath>
<clipPath id="clip_9">
<path transform="matrix(1,0,0,-1,-126.6045,213.2992)" d="M.000015259 .000061035H959.76V539.99996H.000015259Z"/>
</clipPath>
<clipPath id="clip_10">
<path transform="matrix(1,0,0,-1,-126.6045,213.2992)" d="M.000015259 .000061035H959.76V539.99996H.000015259Z"/>
</clipPath>
<clipPath id="clip_11">
<path transform="matrix(1,0,0,-1,-126.6045,213.2992)" d="M0 .00012207H959.76V540H0Z"/>
</clipPath>
<clipPath id="clip_12">
<path transform="matrix(1,0,0,-1,-126.6045,213.2992)" d="M0 .00012207H959.76V540H0Z"/>
</clipPath>
<clipPath id="clip_13">
<path transform="matrix(1,0,0,-1,-126.6045,213.2992)" d="M.000030518 .00012207H959.7601V540H.000030518Z"/>
</clipPath>
<clipPath id="clip_14">
<path transform="matrix(1,0,0,-1,-126.6045,213.2992)" d="M.000030518 .00012207H959.7601V540H.000030518Z"/>
</clipPath>
<clipPath id="clip_15">
<path transform="matrix(1,0,0,-1,-126.6045,213.2992)" d="M.000015259 .00012207H959.76V540H.000015259Z"/>
</clipPath>
<clipPath id="clip_16">
<path transform="matrix(1,0,0,-1,-126.6045,213.2992)" d="M.000030518 .00012207H959.7601V540H.000030518Z"/>
</clipPath>
<clipPath id="clip_17">
<path transform="matrix(1,0,0,-1,-126.6045,213.2992)" d="M.000030518 .00012207H959.7601V540H.000030518Z"/>
</clipPath>
<clipPath id="clip_18">
<path transform="matrix(1,0,0,-1,-126.6045,213.2992)" d="M.000030518 .00012207H959.7601V540H.000030518Z"/>
</clipPath>
<clipPath id="clip_19">
<path transform="matrix(1,0,0,-1,-126.6045,213.2992)" d="M.000030518 .00012207H959.7601V540H.000030518Z"/>
</clipPath>
<clipPath id="clip_20">
<path transform="matrix(1,0,0,-1,-126.6045,213.2992)" d="M0 .00012207H959.76V540H0Z"/>
</clipPath>
<clipPath id="clip_21">
<path transform="matrix(1,0,0,-1,-126.6045,213.2992)" d="M0 .00012207H959.76V540H0Z"/>
</clipPath>
<clipPath id="clip_22">
<path transform="matrix(1,0,0,-1,-126.6045,213.2992)" d="M0 .00012207H959.76V540H0Z"/>
</clipPath>
<clipPath id="clip_23">
<path transform="matrix(1,0,0,-1,-126.6045,213.2992)" d="M0 .00012207H959.76V540H0Z"/>
</clipPath>
<clipPath id="clip_24">
<path transform="matrix(1,0,0,-1,-126.6045,213.2992)" d="M0 .00012207H959.76V540H0Z"/>
</clipPath>
<clipPath id="clip_25">
<path transform="matrix(1,0,0,-1,-126.6045,213.2992)" d="M0 .00012207H959.76V540H0Z"/>
</clipPath>
<clipPath id="clip_26">
<path transform="matrix(1,0,0,-1,-126.6045,213.2992)" d="M0 .00012207H959.76V540H0Z"/>
</clipPath>
<clipPath id="clip_27">
<path transform="matrix(1,0,0,-1,-126.6045,213.2992)" d="M0 .00012207H959.76V540H0Z"/>
</clipPath>
<clipPath id="clip_28">
<path transform="matrix(1,0,0,-1,-126.6045,213.2992)" d="M0 .00012207H959.7599V540H0Z"/>
</clipPath>
<clipPath id="clip_29">
<path transform="matrix(1,0,0,-1,-126.6045,213.2992)" d="M.000061035 .00012207H959.75997V540H.000061035Z"/>
</clipPath>
<clipPath id="clip_30">
<path transform="matrix(1,0,0,-1,-126.6045,213.2992)" d="M.000061035 .00018311H959.75997V540H.000061035Z"/>
</clipPath>
<clipPath id="clip_31">
<path transform="matrix(1,0,0,-1,-126.6045,213.2992)" d="M0 .000061035H959.76V539.99996H0Z"/>
</clipPath>
<clipPath id="clip_32">
<path transform="matrix(1,0,0,-1,-126.6045,213.2992)" d="M0 .000061035H959.76V539.99996H0Z"/>
</clipPath>
<clipPath id="clip_33">
<path transform="matrix(1,0,0,-1,-126.6045,213.2992)" d="M0 .00012207H959.76V540H0Z"/>
</clipPath>
<clipPath id="clip_34">
<path transform="matrix(1,0,0,-1,-126.6045,213.2992)" d="M0 .00012207H959.76V540H0Z"/>
</clipPath>
<clipPath id="clip_35">
<path transform="matrix(1,0,0,-1,-126.6045,213.2992)" d="M0 .00012207H959.76V540H0Z"/>
</clipPath>
<clipPath id="clip_36">
<path transform="matrix(1,0,0,-1,-126.6045,213.2992)" d="M0 .00012207H959.76V540H0Z"/>
</clipPath>
<clipPath id="clip_37">
<path transform="matrix(1,0,0,-1,-126.6045,213.2992)" d="M.000015259 .00012207H959.76V540H.000015259Z"/>
</clipPath>
<clipPath id="clip_38">
<path transform="matrix(1,0,0,-1,-126.6045,213.2992)" d="M.000015259 .00012207H959.76V540H.000015259Z"/>
</clipPath>
<clipPath id="clip_39">
<path transform="matrix(1,0,0,-1,-126.6045,213.2992)" d="M0 .00012207H959.76V540H0Z"/>
</clipPath>
<clipPath id="clip_40">
<path transform="matrix(1,0,0,-1,-126.6045,213.2992)" d="M0 .00012207H959.76V540H0Z"/>
</clipPath>
<clipPath id="clip_41">
<path transform="matrix(1,0,0,-1,-126.6045,213.2992)" d="M0 .00012207H959.76V540H0Z"/>
</clipPath>
<clipPath id="clip_42">
<path transform="matrix(1,0,0,-1,-126.6045,213.2992)" d="M0 .00012207H959.76V540H0Z"/>
</clipPath>
<clipPath id="clip_43">
<path transform="matrix(1,0,0,-1,-126.6045,213.2992)" d="M.000015259 .00012207H959.76V540H.000015259Z"/>
</clipPath>
<clipPath id="clip_44">
<path transform="matrix(1,0,0,-1,-126.6045,213.2992)" d="M0 .00012207H959.76V540H0Z"/>
</clipPath>
<clipPath id="clip_45">
<path transform="matrix(1,0,0,-1,-126.6045,213.2992)" d="M0 .00012207H959.76V540H0Z"/>
</clipPath>
<clipPath id="clip_46">
<path transform="matrix(1,0,0,-1,-126.6045,213.2992)" d="M.000015259 .000061035H959.76V539.99996H.000015259Z"/>
</clipPath>
<clipPath id="clip_47">
<path transform="matrix(1,0,0,-1,-126.6045,213.2992)" d="M0 .00012207H959.76V540H0Z"/>
</clipPath>
<clipPath id="clip_48">
<path transform="matrix(1,0,0,-1,-126.6045,213.2992)" d="M0 .00012207H959.76V540H0Z"/>
</clipPath>
</defs>
<g clip-path="url(#clip_1)">
<g clip-path="url(#clip_2)">
<path transform="matrix(1,0,0,-1,-126.6045,213.2992)" d="M0-.13507H959.76V540.00497H0Z" fill="#ffffff" fill-rule="evenodd"/>
</g>
<g clip-path="url(#clip_3)">
<path transform="matrix(1,0,0,-1,-126.6045,213.2992)" d="M133.92 251.93H166.32V315.306H133.92Z" fill="#0070c0" fill-rule="evenodd"/>
</g>
<g clip-path="url(#clip_4)">
<path transform="matrix(1,0,0,-1,-126.6045,213.2992)" stroke-width="2.75" stroke-linecap="butt" stroke-miterlimit="10" stroke-linejoin="miter" fill="none" stroke="#000000" d="M133.92 251.93H166.32V315.306H133.92Z"/>
</g>
<g clip-path="url(#clip_5)">
<path transform="matrix(1,0,0,-1,-126.6045,213.2992)" d="M167.76 251.93H200.16V340.512H167.76Z" fill="#0070c0" fill-rule="evenodd"/>
</g>
<g clip-path="url(#clip_6)">
<path transform="matrix(1,0,0,-1,-126.6045,213.2992)" stroke-width="2.75" stroke-linecap="butt" stroke-miterlimit="10" stroke-linejoin="miter" fill="none" stroke="#000000" d="M167.76 251.93H200.16V340.512H167.76Z"/>
</g>
<g clip-path="url(#clip_7)">
<path transform="matrix(1,0,0,-1,-126.6045,213.2992)" d="M200.88 251.93H233.28V358.52H200.88Z" fill="#ff0000" fill-rule="evenodd"/>
</g>
<g clip-path="url(#clip_8)">
<path transform="matrix(1,0,0,-1,-126.6045,213.2992)" stroke-width="2.75" stroke-linecap="butt" stroke-miterlimit="10" stroke-linejoin="miter" fill="none" stroke="#000000" d="M200.88 251.93H233.28V358.52H200.88Z"/>
</g>
<g clip-path="url(#clip_9)">
<path transform="matrix(1,0,0,-1,-126.6045,213.2992)" d="M234 251.93H267.12V326.109H234Z" fill="#0070c0" fill-rule="evenodd"/>
</g>
<g clip-path="url(#clip_10)">
<path transform="matrix(1,0,0,-1,-126.6045,213.2992)" stroke-width="2.75" stroke-linecap="butt" stroke-miterlimit="10" stroke-linejoin="miter" fill="none" stroke="#000000" d="M234 251.93H267.12V326.109H234Z"/>
</g>
<g clip-path="url(#clip_11)">
<path transform="matrix(1,0,0,-1,-126.6045,213.2992)" d="M267.84 251.93H300.24V302.343H267.84Z" fill="#0070c0" fill-rule="evenodd"/>
</g>
<g clip-path="url(#clip_12)">
<path transform="matrix(1,0,0,-1,-126.6045,213.2992)" stroke-width="2.75" stroke-linecap="butt" stroke-miterlimit="10" stroke-linejoin="miter" fill="none" stroke="#000000" d="M267.84 251.93H300.24V302.343H267.84Z"/>
</g>
<g clip-path="url(#clip_13)">
<path transform="matrix(1,0,0,-1,-126.6045,213.2992)" d="M300.96 251.93H333.36V291.53999H300.96Z" fill="#0070c0" fill-rule="evenodd"/>
</g>
<g clip-path="url(#clip_14)">
<path transform="matrix(1,0,0,-1,-126.6045,213.2992)" stroke-width="2.75" stroke-linecap="butt" stroke-miterlimit="10" stroke-linejoin="miter" fill="none" stroke="#000000" d="M300.96 251.93H333.36V291.53999H300.96Z"/>
</g>
<g clip-path="url(#clip_15)">
<path transform="matrix(1,0,0,-1,-126.6045,213.2992)" d="M219.69 322.78V303.34H215.19V322.78ZM210.69 320.53 217.44 334.03 224.19 320.53ZM224.19 305.59 217.44 292.09 210.69 305.59Z" fill="#00b0f0"/>
</g>
<g clip-path="url(#clip_16)">
<path transform="matrix(1,0,0,-1,-126.6045,213.2992)" d="M447.12 250.49H476.63999V293.701H447.12Z" fill="#0070c0" fill-rule="evenodd"/>
</g>
<g clip-path="url(#clip_17)">
<path transform="matrix(1,0,0,-1,-126.6045,213.2992)" stroke-width="2.75" stroke-linecap="butt" stroke-miterlimit="10" stroke-linejoin="miter" fill="none" stroke="#000000" d="M447.12 250.49H476.63999V293.701H447.12Z"/>
</g>
<g clip-path="url(#clip_18)">
<path transform="matrix(1,0,0,-1,-126.6045,213.2992)" d="M478.08 250.49H507.59999V317.467H478.08Z" fill="#0070c0" fill-rule="evenodd"/>
</g>
<g clip-path="url(#clip_19)">
<path transform="matrix(1,0,0,-1,-126.6045,213.2992)" stroke-width="2.75" stroke-linecap="butt" stroke-miterlimit="10" stroke-linejoin="miter" fill="none" stroke="#000000" d="M478.08 250.49H507.59999V317.467H478.08Z"/>
</g>
<g clip-path="url(#clip_20)">
<path transform="matrix(1,0,0,-1,-126.6045,213.2992)" d="M509.04 250.49H538.56V342.673H509.04Z" fill="#0070c0" fill-rule="evenodd"/>
</g>
<g clip-path="url(#clip_21)">
<path transform="matrix(1,0,0,-1,-126.6045,213.2992)" stroke-width="2.75" stroke-linecap="butt" stroke-miterlimit="10" stroke-linejoin="miter" fill="none" stroke="#000000" d="M509.04 250.49H538.56V342.673H509.04Z"/>
</g>
<g clip-path="url(#clip_22)">
<path transform="matrix(1,0,0,-1,-126.6045,213.2992)" d="M539.28 250.49H568.80007V327.549H539.28Z" fill="#0070c0" fill-rule="evenodd"/>
</g>
<g clip-path="url(#clip_23)">
<path transform="matrix(1,0,0,-1,-126.6045,213.2992)" stroke-width="2.75" stroke-linecap="butt" stroke-miterlimit="10" stroke-linejoin="miter" fill="none" stroke="#000000" d="M539.28 250.49H568.80007V327.549H539.28Z"/>
</g>
<g clip-path="url(#clip_24)">
<path transform="matrix(1,0,0,-1,-126.6045,213.2992)" d="M570.24 250.49H599.76V308.825H570.24Z" fill="#0070c0" fill-rule="evenodd"/>
</g>
<g clip-path="url(#clip_25)">
<path transform="matrix(1,0,0,-1,-126.6045,213.2992)" stroke-width="2.75" stroke-linecap="butt" stroke-miterlimit="10" stroke-linejoin="miter" fill="none" stroke="#000000" d="M570.24 250.49H599.76V308.825H570.24Z"/>
</g>
<g clip-path="url(#clip_26)">
<path transform="matrix(1,0,0,-1,-126.6045,213.2992)" d="M601.2 250.49H630.72006V288.66H601.2Z" fill="#0070c0" fill-rule="evenodd"/>
</g>
<g clip-path="url(#clip_27)">
<path transform="matrix(1,0,0,-1,-126.6045,213.2992)" stroke-width="2.75" stroke-linecap="butt" stroke-miterlimit="10" stroke-linejoin="miter" fill="none" stroke="#000000" d="M601.2 250.49H630.72006V288.66H601.2Z"/>
</g>
<g clip-path="url(#clip_28)">
<path transform="matrix(1,0,0,-1,-126.6045,213.2992)" d="M601.91 358.28 582.19 344.34 584.93 340.46 604.65 354.4ZM605.45 349.15 612.98 363.2 597.23 360.79Z" fill="#ff0000"/>
</g>
<g clip-path="url(#clip_29)">
<path transform="matrix(1,0,0,-1,-126.6045,213.2992)" d="M459.64 347.63 470.44 342.29 468.45 338.26 457.65 343.59ZM457.67 338.56 448.56 350.59 463.65 350.67Z" fill="#ff0000"/>
</g>
<g clip-path="url(#clip_30)">
<path transform="matrix(1,0,0,-1,-126.6045,213.2992)" stroke-width="4.25" stroke-linecap="butt" stroke-miterlimit="10" stroke-linejoin="miter" fill="none" stroke="#ff0000" d="M463.68 309.93C475.5 334.67 487.32 359.42 514.44 359.23 541.56 359.05 583.98 333.94 626.4 308.82"/>
</g>
<g clip-path="url(#clip_31)">
<path transform="matrix(1,0,0,-1,-126.6045,213.2992)" d="M134.64 97.809H167.76V161.185H134.64Z" fill="#ff0000" fill-rule="evenodd"/>
</g>
<g clip-path="url(#clip_32)">
<path transform="matrix(1,0,0,-1,-126.6045,213.2992)" stroke-width="2.75" stroke-linecap="butt" stroke-miterlimit="10" stroke-linejoin="miter" fill="none" stroke="#000000" d="M134.64 97.809H167.76V161.185H134.64Z"/>
</g>
<g clip-path="url(#clip_33)">
<path transform="matrix(1,0,0,-1,-126.6045,213.2992)" d="M168.48 97.809H200.88V186.39099H168.48Z" fill="#ff0000" fill-rule="evenodd"/>
</g>
<g clip-path="url(#clip_34)">
<path transform="matrix(1,0,0,-1,-126.6045,213.2992)" stroke-width="2.75" stroke-linecap="butt" stroke-miterlimit="10" stroke-linejoin="miter" fill="none" stroke="#000000" d="M168.48 97.809H200.88V186.39099H168.48Z"/>
</g>
<g clip-path="url(#clip_35)">
<path transform="matrix(1,0,0,-1,-126.6045,213.2992)" d="M201.6 97.809H234V204.39899H201.6Z" fill="#ff0000" fill-rule="evenodd"/>
</g>
<g clip-path="url(#clip_36)">
<path transform="matrix(1,0,0,-1,-126.6045,213.2992)" stroke-width="2.75" stroke-linecap="butt" stroke-miterlimit="10" stroke-linejoin="miter" fill="none" stroke="#000000" d="M201.6 97.809H234V204.39899H201.6Z"/>
</g>
<g clip-path="url(#clip_37)">
<path transform="matrix(1,0,0,-1,-126.6045,213.2992)" d="M235.44 97.809H267.84V171.988H235.44Z" fill="#ff0000" fill-rule="evenodd"/>
</g>
<g clip-path="url(#clip_38)">
<path transform="matrix(1,0,0,-1,-126.6045,213.2992)" stroke-width="2.75" stroke-linecap="butt" stroke-miterlimit="10" stroke-linejoin="miter" fill="none" stroke="#000000" d="M235.44 97.809H267.84V171.988H235.44Z"/>
</g>
<g clip-path="url(#clip_39)">
<path transform="matrix(1,0,0,-1,-126.6045,213.2992)" d="M268.56 97.809H300.96V148.222H268.56Z" fill="#ff0000" fill-rule="evenodd"/>
</g>
<g clip-path="url(#clip_40)">
<path transform="matrix(1,0,0,-1,-126.6045,213.2992)" stroke-width="2.75" stroke-linecap="butt" stroke-miterlimit="10" stroke-linejoin="miter" fill="none" stroke="#000000" d="M268.56 97.809H300.96V148.222H268.56Z"/>
</g>
<g clip-path="url(#clip_41)">
<path transform="matrix(1,0,0,-1,-126.6045,213.2992)" d="M301.68 97.809H334.8V137.419H301.68Z" fill="#ff0000" fill-rule="evenodd"/>
</g>
<g clip-path="url(#clip_42)">
<path transform="matrix(1,0,0,-1,-126.6045,213.2992)" stroke-width="2.75" stroke-linecap="butt" stroke-miterlimit="10" stroke-linejoin="miter" fill="none" stroke="#000000" d="M301.68 97.809H334.8V137.419H301.68Z"/>
</g>
<g clip-path="url(#clip_43)">
<path transform="matrix(1,0,0,-1,-126.6045,213.2992)" d="M219.69 163.62V144.18H215.19V163.62ZM210.69 161.37 217.44 174.87 224.19 161.37ZM224.19 146.43 217.44 132.93 210.69 146.43Z" fill="#00b0f0"/>
</g>
<g clip-path="url(#clip_44)">
<path transform="matrix(1,0,0,-1,-126.6045,213.2992)" d="M253.53 147.05V127.61H249.03V147.05ZM244.53 144.8 251.28 158.3 258.03 144.8ZM258.03 129.86 251.28 116.36 244.53 129.86Z" fill="#00b0f0"/>
</g>
<g clip-path="url(#clip_45)">
<path transform="matrix(1,0,0,-1,-126.6045,213.2992)" d="M286.65 129.77V116.65H282.15V129.77ZM277.65 127.52 284.4 141.02 291.15 127.52ZM291.15 118.9 284.4 105.4 277.65 118.9Z" fill="#00b0f0"/>
</g>
<g clip-path="url(#clip_46)">
<path transform="matrix(1,0,0,-1,-126.6045,213.2992)" d="M187.29 150.66V131.22H182.79V150.66ZM178.29 148.41 185.04 161.91 191.79 148.41ZM191.79 133.47 185.04 119.97 178.29 133.47Z" fill="#00b0f0"/>
</g>
<g clip-path="url(#clip_47)">
<path transform="matrix(1,0,0,-1,-126.6045,213.2992)" d="M153.45 139.85V120.41H148.95V139.85ZM144.45 137.6 151.2 151.1 157.95 137.6ZM157.95 122.66 151.2 109.16 144.45 122.66Z" fill="#00b0f0"/>
</g>
<g clip-path="url(#clip_48)">
<path transform="matrix(1,0,0,-1,-126.6045,213.2992)" d="M320.71 124.05 320.95 111.2 316.46 111.12 316.21 123.97ZM311.75 121.63 318.24 135.26 325.25 121.89ZM325.41 113.54 318.92 99.912 311.91 113.28Z" fill="#00b0f0"/>
</g>
</g>
</svg>
