<svg xmlns="http://www.w3.org/2000/svg" xmlns:xlink="http://www.w3.org/1999/xlink" xmlns:inkscape="http://www.inkscape.org/namespaces/inkscape" version="1.1" width="215.38849" height="126.5517" viewBox="0 0 215.38849 126.5517">
<defs>
<clipPath id="clip_1">
<path transform="matrix(1,0,0,-1,-125.2907,367.0903)" d="M125.2907 240.5386H340.6792V367.0903H125.2907Z" clip-rule="evenodd"/>
</clipPath>
<clipPath id="clip_2">
<path transform="matrix(1,0,0,-1,-125.2907,367.0903)" d="M0 .00012207H959.76V540H0Z"/>
</clipPath>
<clipPath id="clip_3">
<path transform="matrix(1,0,0,-1,-125.2907,367.0903)" d="M.000015259 .000061035H959.76V539.99996H.000015259Z"/>
</clipPath>
<clipPath id="clip_4">
<path transform="matrix(1,0,0,-1,-125.2907,367.0903)" d="M.000015259 .000061035H959.76V539.99996H.000015259Z"/>
</clipPath>
<clipPath id="clip_5">
<path transform="matrix(1,0,0,-1,-125.2907,367.0903)" d="M0 .00012207H959.76V540H0Z"/>
</clipPath>
<clipPath id="clip_6">
<path transform="matrix(1,0,0,-1,-125.2907,367.0903)" d="M0 .00012207H959.76V540H0Z"/>
</clipPath>
<clipPath id="clip_7">
<path transform="matrix(1,0,0,-1,-125.2907,367.0903)" d="M0 .00018311H959.76V540H0Z"/>
</clipPath>
<clipPath id="clip_8">
<path transform="matrix(1,0,0,-1,-125.2907,367.0903)" d="M0 .00018311H959.76V540H0Z"/>
</clipPath>
<clipPath id="clip_9">
<path transform="matrix(1,0,0,-1,-125.2907,367.0903)" d="M.000015259 .000061035H959.76V539.99996H.000015259Z"/>
</clipPath>
<clipPath id="clip_10">
<path transform="matrix(1,0,0,-1,-125.2907,367.0903)" d="M.000015259 .000061035H959.76V539.99996H.000015259Z"/>
</clipPath>
<clipPath id="clip_11">
<path transform="matrix(1,0,0,-1,-125.2907,367.0903)" d="M0 .00012207H959.76V540H0Z"/>
</clipPath>
<clipPath id="clip_12">
<path transform="matrix(1,0,0,-1,-125.2907,367.0903)" d="M0 .00012207H959.76V540H0Z"/>
</clipPath>
<clipPath id="clip_13">
<path transform="matrix(1,0,0,-1,-125.2907,367.0903)" d="M.000030518 .00012207H959.7601V540H.000030518Z"/>
</clipPath>
<clipPath id="clip_14">
<path transform="matrix(1,0,0,-1,-125.2907,367.0903)" d="M.000030518 .00012207H959.7601V540H.000030518Z"/>
</clipPath>
<clipPath id="clip_15">
<path transform="matrix(1,0,0,-1,-125.2907,367.0903)" d="M.000015259 .00012207H959.76V540H.000015259Z"/>
</clipPath>
<clipPath id="clip_16">
<path transform="matrix(1,0,0,-1,-125.2907,367.0903)" d="M.000030518 .00012207H959.7601V540H.000030518Z"/>
</clipPath>
<clipPath id="clip_17">
<path transform="matrix(1,0,0,-1,-125.2907,367.0903)" d="M.000030518 .00012207H959.7601V540H.000030518Z"/>
</clipPath>
<clipPath id="clip_18">
<path transform="matrix(1,0,0,-1,-125.2907,367.0903)" d="M.000030518 .00012207H959.7601V540H.000030518Z"/>
</clipPath>
<clipPath id="clip_19">
<path transform="matrix(1,0,0,-1,-125.2907,367.0903)" d="M.000030518 .00012207H959.7601V540H.000030518Z"/>
</clipPath>
<clipPath id="clip_20">
<path transform="matrix(1,0,0,-1,-125.2907,367.0903)" d="M0 .00012207H959.76V540H0Z"/>
</clipPath>
<clipPath id="clip_21">
<path transform="matrix(1,0,0,-1,-125.2907,367.0903)" d="M0 .00012207H959.76V540H0Z"/>
</clipPath>
<clipPath id="clip_22">
<path transform="matrix(1,0,0,-1,-125.2907,367.0903)" d="M0 .00012207H959.76V540H0Z"/>
</clipPath>
<clipPath id="clip_23">
<path transform="matrix(1,0,0,-1,-125.2907,367.0903)" d="M0 .00012207H959.76V540H0Z"/>
</clipPath>
<clipPath id="clip_24">
<path transform="matrix(1,0,0,-1,-125.2907,367.0903)" d="M0 .00012207H959.76V540H0Z"/>
</clipPath>
<clipPath id="clip_25">
<path transform="matrix(1,0,0,-1,-125.2907,367.0903)" d="M0 .00012207H959.76V540H0Z"/>
</clipPath>
<clipPath id="clip_26">
<path transform="matrix(1,0,0,-1,-125.2907,367.0903)" d="M0 .00012207H959.76V540H0Z"/>
</clipPath>
<clipPath id="clip_27">
<path transform="matrix(1,0,0,-1,-125.2907,367.0903)" d="M0 .00012207H959.76V540H0Z"/>
</clipPath>
<clipPath id="clip_28">
<path transform="matrix(1,0,0,-1,-125.2907,367.0903)" d="M0 .00012207H959.7599V540H0Z"/>
</clipPath>
<clipPath id="clip_29">
<path transform="matrix(1,0,0,-1,-125.2907,367.0903)" d="M.000061035 .00012207H959.75997V540H.000061035Z"/>
</clipPath>
<clipPath id="clip_30">
<path transform="matrix(1,0,0,-1,-125.2907,367.0903)" d="M.000061035 .00018311H959.75997V540H.000061035Z"/>
</clipPath>
</defs>
<g clip-path="url(#clip_1)">
<g clip-path="url(#clip_2)">
<path transform="matrix(1,0,0,-1,-125.2907,367.0903)" d="M0-.13507H959.76V540.00497H0Z" fill="#ffffff" fill-rule="evenodd"/>
</g>
<g clip-path="url(#clip_3)">
<path transform="matrix(1,0,0,-1,-125.2907,367.0903)" d="M133.92 251.93H166.32V315.306H133.92Z" fill="#0070c0" fill-rule="evenodd"/>
</g>
<g clip-path="url(#clip_4)">
<path transform="matrix(1,0,0,-1,-125.2907,367.0903)" stroke-width="2.75" stroke-linecap="butt" stroke-miterlimit="10" stroke-linejoin="miter" fill="none" stroke="#000000" d="M133.92 251.93H166.32V315.306H133.92Z"/>
</g>
<g clip-path="url(#clip_5)">
<path transform="matrix(1,0,0,-1,-125.2907,367.0903)" d="M167.76 251.93H200.16V340.512H167.76Z" fill="#0070c0" fill-rule="evenodd"/>
</g>
<g clip-path="url(#clip_6)">
<path transform="matrix(1,0,0,-1,-125.2907,367.0903)" stroke-width="2.75" stroke-linecap="butt" stroke-miterlimit="10" stroke-linejoin="miter" fill="none" stroke="#000000" d="M167.76 251.93H200.16V340.512H167.76Z"/>
</g>
<g clip-path="url(#clip_7)">
<path transform="matrix(1,0,0,-1,-125.2907,367.0903)" d="M200.88 251.93H233.28V358.52H200.88Z" fill="#ff0000" fill-rule="evenodd"/>
</g>
<g clip-path="url(#clip_8)">
<path transform="matrix(1,0,0,-1,-125.2907,367.0903)" stroke-width="2.75" stroke-linecap="butt" stroke-miterlimit="10" stroke-linejoin="miter" fill="none" stroke="#000000" d="M200.88 251.93H233.28V358.52H200.88Z"/>
</g>
<g clip-path="url(#clip_9)">
<path transform="matrix(1,0,0,-1,-125.2907,367.0903)" d="M234 251.93H267.12V326.109H234Z" fill="#0070c0" fill-rule="evenodd"/>
</g>
<g clip-path="url(#clip_10)">
<path transform="matrix(1,0,0,-1,-125.2907,367.0903)" stroke-width="2.75" stroke-linecap="butt" stroke-miterlimit="10" stroke-linejoin="miter" fill="none" stroke="#000000" d="M234 251.93H267.12V326.109H234Z"/>
</g>
<g clip-path="url(#clip_11)">
<path transform="matrix(1,0,0,-1,-125.2907,367.0903)" d="M267.84 251.93H300.24V302.343H267.84Z" fill="#0070c0" fill-rule="evenodd"/>
</g>
<g clip-path="url(#clip_12)">
<path transform="matrix(1,0,0,-1,-125.2907,367.0903)" stroke-width="2.75" stroke-linecap="butt" stroke-miterlimit="10" stroke-linejoin="miter" fill="none" stroke="#000000" d="M267.84 251.93H300.24V302.343H267.84Z"/>
</g>
<g clip-path="url(#clip_13)">
<path transform="matrix(1,0,0,-1,-125.2907,367.0903)" d="M300.96 251.93H333.36V291.53999H300.96Z" fill="#0070c0" fill-rule="evenodd"/>
</g>
<g clip-path="url(#clip_14)">
<path transform="matrix(1,0,0,-1,-125.2907,367.0903)" stroke-width="2.75" stroke-linecap="butt" stroke-miterlimit="10" stroke-linejoin="miter" fill="none" stroke="#000000" d="M300.96 251.93H333.36V291.53999H300.96Z"/>
</g>
<g clip-path="url(#clip_15)">
<path transform="matrix(1,0,0,-1,-125.2907,367.0903)" d="M219.69 322.78V303.34H215.19V322.78ZM210.69 320.53 217.44 334.03 224.19 320.53ZM224.19 305.59 217.44 292.09 210.69 305.59Z" fill="#00b0f0"/>
</g>
<g clip-path="url(#clip_16)">
<path transform="matrix(1,0,0,-1,-125.2907,367.0903)" d="M447.12 250.49H476.63999V293.701H447.12Z" fill="#0070c0" fill-rule="evenodd"/>
</g>
<g clip-path="url(#clip_17)">
<path transform="matrix(1,0,0,-1,-125.2907,367.0903)" stroke-width="2.75" stroke-linecap="butt" stroke-miterlimit="10" stroke-linejoin="miter" fill="none" stroke="#000000" d="M447.12 250.49H476.63999V293.701H447.12Z"/>
</g>
<g clip-path="url(#clip_18)">
<path transform="matrix(1,0,0,-1,-125.2907,367.0903)" d="M478.08 250.49H507.59999V317.467H478.08Z" fill="#0070c0" fill-rule="evenodd"/>
</g>
<g clip-path="url(#clip_19)">
<path transform="matrix(1,0,0,-1,-125.2907,367.0903)" stroke-width="2.75" stroke-linecap="butt" stroke-miterlimit="10" stroke-linejoin="miter" fill="none" stroke="#000000" d="M478.08 250.49H507.59999V317.467H478.08Z"/>
</g>
<g clip-path="url(#clip_20)">
<path transform="matrix(1,0,0,-1,-125.2907,367.0903)" d="M509.04 250.49H538.56V342.673H509.04Z" fill="#0070c0" fill-rule="evenodd"/>
</g>
<g clip-path="url(#clip_21)">
<path transform="matrix(1,0,0,-1,-125.2907,367.0903)" stroke-width="2.75" stroke-linecap="butt" stroke-miterlimit="10" stroke-linejoin="miter" fill="none" stroke="#000000" d="M509.04 250.49H538.56V342.673H509.04Z"/>
</g>
<g clip-path="url(#clip_22)">
<path transform="matrix(1,0,0,-1,-125.2907,367.0903)" d="M539.28 250.49H568.80007V327.549H539.28Z" fill="#0070c0" fill-rule="evenodd"/>
</g>
<g clip-path="url(#clip_23)">
<path transform="matrix(1,0,0,-1,-125.2907,367.0903)" stroke-width="2.75" stroke-linecap="butt" stroke-miterlimit="10" stroke-linejoin="miter" fill="none" stroke="#000000" d="M539.28 250.49H568.80007V327.549H539.28Z"/>
</g>
<g clip-path="url(#clip_24)">
<path transform="matrix(1,0,0,-1,-125.2907,367.0903)" d="M570.24 250.49H599.76V308.825H570.24Z" fill="#0070c0" fill-rule="evenodd"/>
</g>
<g clip-path="url(#clip_25)">
<path transform="matrix(1,0,0,-1,-125.2907,367.0903)" stroke-width="2.75" stroke-linecap="butt" stroke-miterlimit="10" stroke-linejoin="miter" fill="none" stroke="#000000" d="M570.24 250.49H599.76V308.825H570.24Z"/>
</g>
<g clip-path="url(#clip_26)">
<path transform="matrix(1,0,0,-1,-125.2907,367.0903)" d="M601.2 250.49H630.72006V288.66H601.2Z" fill="#0070c0" fill-rule="evenodd"/>
</g>
<g clip-path="url(#clip_27)">
<path transform="matrix(1,0,0,-1,-125.2907,367.0903)" stroke-width="2.75" stroke-linecap="butt" stroke-miterlimit="10" stroke-linejoin="miter" fill="none" stroke="#000000" d="M601.2 250.49H630.72006V288.66H601.2Z"/>
</g>
<g clip-path="url(#clip_28)">
<path transform="matrix(1,0,0,-1,-125.2907,367.0903)" d="M601.91 358.28 582.19 344.34 584.93 340.46 604.65 354.4ZM605.45 349.15 612.98 363.2 597.23 360.79Z" fill="#ff0000"/>
</g>
<g clip-path="url(#clip_29)">
<path transform="matrix(1,0,0,-1,-125.2907,367.0903)" d="M459.64 347.63 470.44 342.29 468.45 338.26 457.65 343.59ZM457.67 338.56 448.56 350.59 463.65 350.67Z" fill="#ff0000"/>
</g>
<g clip-path="url(#clip_30)">
<path transform="matrix(1,0,0,-1,-125.2907,367.0903)" stroke-width="4.25" stroke-linecap="butt" stroke-miterlimit="10" stroke-linejoin="miter" fill="none" stroke="#ff0000" d="M463.68 309.93C475.5 334.67 487.32 359.42 514.44 359.23 541.56 359.05 583.98 333.94 626.4 308.82"/>
</g>
</g>
</svg>
